<?xml version="1.0" standalone="no"?>
<!DOCTYPE svg PUBLIC "-//W3C//DTD SVG 20010904//EN"
 "http://www.w3.org/TR/2001/REC-SVG-20010904/DTD/svg10.dtd">
<svg version="1.0" xmlns="http://www.w3.org/2000/svg"
 width="813.000000pt" height="1280.000000pt" viewBox="0 0 813.000000 1280.000000" preserveAspectRatio="xMidYMid meet">
<metadata>
Created by potrace 1.15, written by Peter Selinger 2001-2017
</metadata>
<g transform="translate(0.000000,1280.000000) scale(0.100000,-0.100000)"
fill="#5146e5" stroke="none">
<path d="M3414 12718 c-38 -40 -93 -105 -121 -143 -65 -86 -148 -249 -168
-330 -16 -65 -20 -175 -6 -175 17 0 120 146 162 230 46 92 210 482 205 487 -2
2 -34 -29 -72 -69z"/>
<path d="M1059 12504 c11 -23 56 -123 100 -222 140 -315 230 -479 320 -581 27
-30 32 -33 47 -20 23 19 44 71 44 109 0 17 -9 56 -20 87 -40 113 -136 247
-351 489 -59 65 -119 133 -133 149 l-27 30 20 -41z"/>
<path d="M2211 12387 c-13 -67 -26 -161 -29 -209 -4 -75 -1 -93 18 -132 22
-47 72 -92 90 -81 18 11 11 178 -16 355 -15 96 -30 178 -33 182 -3 4 -17 -48
-30 -115z"/>
<path d="M3450 11573 c-116 -5 -219 -25 -246 -46 -76 -60 -118 -179 -168 -474
-51 -302 -71 -383 -122 -485 -57 -113 -218 -262 -354 -327 -72 -35 -79 -36
-185 -36 -98 0 -118 3 -180 28 -86 35 -208 116 -297 197 -81 74 -142 157 -323
440 -234 367 -336 499 -420 543 -56 30 -164 30 -221 0 -125 -66 -216 -258
-279 -586 -34 -178 -91 -616 -106 -809 -15 -200 -7 -653 15 -796 52 -341 128
-591 262 -852 127 -250 219 -359 539 -640 245 -215 334 -316 410 -464 55 -106
80 -214 72 -310 -12 -139 -48 -242 -206 -589 -191 -419 -284 -715 -525 -1662
-321 -1262 -582 -2034 -904 -2670 -58 -115 -126 -249 -150 -297 -130 -258 -55
-392 278 -496 87 -27 141 -42 211 -56 15 -3 89 -15 164 -26 76 -11 157 -29
181 -39 81 -36 117 -122 149 -354 25 -180 55 -249 148 -333 95 -87 217 -138
407 -171 85 -15 158 -18 380 -17 234 0 324 5 605 33 560 56 701 42 1291 -134
120 -36 284 -82 364 -102 131 -34 158 -37 280 -37 182 -1 287 25 456 113 128
67 185 107 388 269 262 210 351 267 486 310 111 36 177 43 445 52 318 10 385
25 523 119 115 78 185 168 416 534 130 206 260 344 381 405 33 16 101 46 150
67 113 46 224 105 275 146 44 36 90 118 90 161 0 45 -37 130 -170 393 -234
464 -459 829 -744 1208 -152 203 -299 377 -595 707 -693 773 -851 958 -1082
1265 -256 341 -314 436 -514 835 -239 478 -303 579 -455 720 -77 71 -106 105
-130 153 -89 184 -103 566 -40 1117 37 320 50 683 31 847 -26 223 -30 235
-331 1154 -99 301 -203 636 -231 745 -28 110 -55 204 -61 211 -19 24 -209 43
-358 36z"/>
</g>
</svg>
